<svg width="1091" height="518" viewBox="0 0 1091 518" fill="none" xmlns="http://www.w3.org/2000/svg">
<g filter="url(#filter0_f_1006_7)">
<path fill-rule="evenodd" clip-rule="evenodd" d="M883.122 342.882C853.666 371.716 813.635 389.464 770.772 392.694L274.593 430.081C172.524 437.772 85.451 362.77 87.0171 268.508V268.508V268.508C91.9488 196.002 153.069 137.415 231.57 129.944L673.834 87.8536C695.371 85.804 716.975 91.1524 734.496 102.872V102.872C755.885 117.177 783.131 121.856 808.673 115.608L901.131 92.9932C940.381 83.3928 981.369 101.675 997.522 135.988V135.988C1006.75 155.592 1006.53 177.872 996.918 197.309L976.038 239.529C968.167 255.444 957.513 270.062 944.5 282.801L883.122 342.882Z" fill="url(#paint0_linear_1006_7)" fill-opacity="0.16"/>
</g>
<defs>
<filter id="filter0_f_1006_7" x="0.296097" y="0.724808" width="1090.69" height="516.599" filterUnits="userSpaceOnUse" color-interpolation-filters="sRGB">
<feFlood flood-opacity="0" result="BackgroundImageFix"/>
<feBlend mode="normal" in="SourceGraphic" in2="BackgroundImageFix" result="shape"/>
<feGaussianBlur stdDeviation="43.35" result="effect1_foregroundBlur_1006_7"/>
</filter>
<linearGradient id="paint0_linear_1006_7" x1="-20106.8" y1="4542.02" x2="-83026.5" y2="-31965.9" gradientUnits="userSpaceOnUse">
<stop stop-color="white"/>
<stop offset="1" stop-color="white" stop-opacity="0"/>
</linearGradient>
</defs>
</svg>
